<svg id="CMYK" xmlns="http://www.w3.org/2000/svg" viewBox="0 0 220.06 58.83"><defs><style>.cls-1{fill:#009fe3;}</style></defs><title>Bilka_DIT_HYPERMARKED_Positive</title><path class="cls-1" d="M22.09,57.63H0V0H22.26C42.6,0,53.93,2.43,53.93,15.77v.69c0,5-2,9.31-7,11.71,5.49,2.33,7.29,7.21,7.29,11.48v.77c0,15-12.78,17.21-32.18,17.21M35,16.62C35,11.81,31.6,11,24.3,11c-1.89,0-3.35,0-5.32.07V23.29h6.87c7.55,0,9.18-2,9.18-6.13Zm.17,22.79c-.08-4.18-2.06-6.12-9.18-6.12H19V46.47c1.89.08,3.26.08,5.32.08,7.64,0,10.9-1.09,10.9-6.28Z"/><rect class="cls-1" x="89.63" width="19.01" height="57.63"/><rect class="cls-1" x="61.85" y="23.2" width="19.01" height="34.44"/><polygon class="cls-1" points="149.73 57.63 136.26 36.96 136.26 57.63 117.34 57.63 117.34 0 136.26 0 136.26 31.8 150.17 11.68 169.79 11.68 154.13 33.86 170.59 57.63 149.73 57.63"/><path class="cls-1" d="M202.81,57.63V54.69a33,33,0,0,1-16,4.14c-9.59,0-14.79-4.62-14.79-13.12V43.8c0-12.4,11-13.52,25.62-13.52H201V28c0-4.69-1.14-5.64-8.1-5.64-4.05,0-11.09.23-16.9.79V13.51a83.21,83.21,0,0,1,21.3-3c15.4,0,22.8,4.29,22.8,17.49V57.63Zm-1-19.55h-4.05c-5.37,0-7.83.55-7.83,5v1.66c0,3.1,1.85,4,4.58,4a19.15,19.15,0,0,0,7.3-1.67Z"/><rect class="cls-1" x="61.85" width="19.01" height="16.6"/></svg>